<?xml version="1.0" encoding="iso-8859-1"?>
<!-- Generator: Adobe Illustrator 19.0.0, SVG Export Plug-In . SVG Version: 6.00 Build 0)  -->
<svg xmlns="http://www.w3.org/2000/svg" xmlns:xlink="http://www.w3.org/1999/xlink" version="1.1" id="Capa_1" x="0px" y="0px" viewBox="0 0 243.317 243.317" style="enable-background:new 0 0 243.317 243.317;" xml:space="preserve" width="112px" height="112px">
<g>
	<rect x="39" y="17.619" width="22" height="54" fill="#da573e"/>
	<rect x="77" y="17.619" width="22" height="54" fill="#da573e"/>
	<rect x="116" y="17.619" width="22" height="54" fill="#da573e"/>
	<polygon points="139,139.619 139,108.619 177,108.619 177,14.619 155,14.619 155,86.619 22,86.619 22,14.619 0,14.619 0,108.619    38,108.619 38,139.619 65,139.619 65,227.619 111,227.619 111,139.619  " fill="#da573e"/>
	<polygon points="176.166,204.619 199.591,204.619 243.317,228.699 232.535,189.591 243.218,149.776 201.738,172.619    174.02,172.619 132.54,149.776 143.223,189.591 132.44,228.699  " fill="#da573e"/>
</g>
<g>
</g>
<g>
</g>
<g>
</g>
<g>
</g>
<g>
</g>
<g>
</g>
<g>
</g>
<g>
</g>
<g>
</g>
<g>
</g>
<g>
</g>
<g>
</g>
<g>
</g>
<g>
</g>
<g>
</g>
</svg>
