<?xml version="1.0"?>
<svg xmlns="http://www.w3.org/2000/svg" height="112px" viewBox="-96 0 480 480" width="112px"><path d="m160 448h88c4.417969 0 8-3.582031 8-8s-3.582031-8-8-8h-88c-4.417969 0-8 3.582031-8 8s3.582031 8 8 8zm0 0" fill="#da573e"/><path d="m112 448h16c4.417969 0 8-3.582031 8-8s-3.582031-8-8-8h-16c-4.417969 0-8 3.582031-8 8s3.582031 8 8 8zm0 0" fill="#da573e"/><path d="m184 0h-48c-4.417969 0-8 3.582031-8 8v24h-64c-26.542969 0-58.144531 30.832031-61.65625 34.34375-1.5 1.5-2.34375 3.535156-2.34375 5.65625v40c0 3.234375 1.949219 6.152344 4.9375 7.390625s6.429688.550781 8.71875-1.734375c18.191406-18.183594 42.769531-37.65625 50.34375-37.65625h64v16h-40c-4.417969 0-8 3.582031-8 8v24.800781c-22.496094 4.230469-38.816406 26.121094-39.886719 54.625 0 .191407-.113281 2.964844-.113281 2.964844v252.007813c-.40625 22.519531 17.480469 41.125 40 41.601562h168c22.519531-.476562 40.40625-19.082031 40-41.601562v-252s-.089844-2.726563-.105469-2.902344c-.941406-30-16.429687-50.929688-39.894531-54.785156v-24.710938c0-4.417969-3.582031-8-8-8h-48v-88c0-4.417969-3.582031-8-8-8zm-40 16h32v80h-32zm-80 48c-12.734375 0-33.496094 16.367188-48 29.398438v-18.007813c9.953125-9.335937 32.414062-27.390625 48-27.390625h64v16zm208 374.398438c.410156 13.6875-10.316406 25.128906-24 25.601562h-168c-13.683594-.472656-24.410156-11.914062-24-25.601562v-22.398438h216zm0-38.398438h-216v-208h216zm-.800781-224h-214.269531c3.023437-17.152344 13.550781-32 31.070312-32h152c19.609375 0 28.695312 15.128906 31.199219 32zm-39.199219-64v16h-136v-16zm0 0" fill="#da573e"/><path d="m160 270.855469c-36.046875 0-64 38.089843-64 70.855469 0 42.289062 46.496094 42.289062 64 42.289062s64 0 64-42.289062c0-32.765626-27.953125-70.855469-64-70.855469zm0 97.144531c-39.832031 0-48-10.503906-48-26.289062 0-24.695313 22.152344-54.855469 48-54.855469s48 30.160156 48 54.855469c0 15.785156-8.167969 26.289062-48 26.289062zm0 0" fill="#da573e"/><path d="m104 280c13.253906 0 24-10.746094 24-24s-10.746094-24-24-24-24 10.746094-24 24 10.746094 24 24 24zm0-32c4.417969 0 8 3.582031 8 8s-3.582031 8-8 8-8-3.582031-8-8 3.582031-8 8-8zm0 0" fill="#da573e"/><path d="m216 280c13.253906 0 24-10.746094 24-24s-10.746094-24-24-24-24 10.746094-24 24 10.746094 24 24 24zm0-32c4.417969 0 8 3.582031 8 8s-3.582031 8-8 8-8-3.582031-8-8 3.582031-8 8-8zm0 0" fill="#da573e"/><path d="m160 256c13.253906 0 24-10.746094 24-24s-10.746094-24-24-24-24 10.746094-24 24 10.746094 24 24 24zm0-32c4.417969 0 8 3.582031 8 8s-3.582031 8-8 8-8-3.582031-8-8 3.582031-8 8-8zm0 0" fill="#da573e"/></svg>
