<?xml version="1.0"?>
<svg xmlns="http://www.w3.org/2000/svg" height="112px" viewBox="-76 0 480 480" width="112px"><path d="m176 80c-13.253906 0-24 10.746094-24 24s10.746094 24 24 24v216c0 4.417969 3.582031 8 8 8h8v24c0 4.417969 3.582031 8 8 8h8v40c0 4.417969 3.582031 8 8 8h16v40c0 4.417969 3.582031 8 8 8s8-3.582031 8-8v-40h16c4.417969 0 8-3.582031 8-8v-40h8c4.417969 0 8-3.582031 8-8v-24h8c4.417969 0 8-3.582031 8-8v-216c13.253906 0 24-10.746094 24-24s-10.746094-24-24-24h-32v-32h16c13.253906 0 24-10.746094 24-24s-10.746094-24-24-24h-96c-13.253906 0-24 10.746094-24 24s10.746094 24 24 24h16v32zm80 336h-32v-32h32zm16-48h-64v-16h64zm16-32h-96v-16h32c4.417969 0 8-3.582031 8-8s-3.582031-8-8-8h-32v-16h32c4.417969 0 8-3.582031 8-8s-3.582031-8-8-8h-32v-16h32c4.417969 0 8-3.582031 8-8s-3.582031-8-8-8h-32v-16h32c4.417969 0 8-3.582031 8-8s-3.582031-8-8-8h-32v-16h32c4.417969 0 8-3.582031 8-8s-3.582031-8-8-8h-32v-16h32c4.417969 0 8-3.582031 8-8s-3.582031-8-8-8h-32v-16h96zm-96-304c-4.417969 0-8-3.582031-8-8s3.582031-8 8-8h96c4.417969 0 8 3.582031 8 8s-3.582031 8-8 8zm64 16v32h-32v-32zm48 48c4.417969 0 8 3.582031 8 8s-3.582031 8-8 8h-128c-4.417969 0-8-3.582031-8-8s3.582031-8 8-8zm0 0" fill="#da573e"/><path d="m0 296v176c0 4.417969 3.582031 8 8 8h128c4.417969 0 8-3.582031 8-8v-176c0-.65625-.082031-1.308594-.238281-1.945312l-13.515625-54.054688h5.753906c4.417969 0 8-3.582031 8-8v-48c0-4.417969-3.582031-8-8-8h-128c-4.417969 0-8 3.582031-8 8v48c0 4.417969 3.582031 8 8 8h5.753906l-13.515625 54.054688c-.1562498.636718-.238281 1.289062-.238281 1.945312zm112-104h16v32h-16zm15.753906 104h-111.507812l14-56h83.507812zm-47.753906-104h16v32h-16zm-32 0h16v32h-16zm-32 0h16v32h-16zm0 120h112v88h-112zm0 136h56c4.417969 0 8-3.582031 8-8s-3.582031-8-8-8h-56v-16h112v16h-24c-4.417969 0-8 3.582031-8 8s3.582031 8 8 8h24v16h-112zm0 0" fill="#da573e"/><path d="m77.503906 330.191406c-3.085937-2.925781-7.921875-2.925781-11.007812 0-4.335938 4.113282-18.496094 18.417969-18.496094 29.808594 0 13.253906 10.746094 24 24 24s24-10.746094 24-24c0-11.390625-14.160156-25.695312-18.496094-29.808594zm-5.503906 37.808594c-4.417969 0-8-3.582031-8-8 1.738281-4.671875 4.46875-8.910156 8-12.425781 3.539062 3.511719 6.269531 7.75 8 12.425781 0 4.417969-3.582031 8-8 8zm0 0" fill="#da573e"/></svg>
